<?xml version="1.0" encoding="UTF-8" standalone="no"?>
<!DOCTYPE svg PUBLIC "-//W3C//DTD SVG 1.1//EN" "http://www.w3.org/Graphics/SVG/1.1/DTD/svg11.dtd">
<svg width="100%" height="100%" viewBox="0 0 1242 2208" version="1.1" xmlns="http://www.w3.org/2000/svg" xmlns:xlink="http://www.w3.org/1999/xlink" xml:space="preserve" xmlns:serif="http://www.serif.com/" style="fill-rule:evenodd;clip-rule:evenodd;stroke-linejoin:round;stroke-miterlimit:2;">
    <rect id="Artboard1" x="0" y="0" width="1242" height="2208" style="fill:none;"/>
    <g id="Artboard11" serif:id="Artboard1">
        <g transform="matrix(1.36269,0.0642436,0.0642436,-1.36269,-403.902,2891.13)">
            <path d="M416.506,1012.48C395.944,1008.64 374.111,1039.97 363.047,1045.33C359.162,1047.21 353.834,1042.41 350.12,1044.61C345.032,1047.62 337.635,1062.38 332.523,1063.39C327.412,1064.39 325.524,1050.25 319.45,1050.64C313.152,1051.05 299.461,1071.04 294.735,1065.82C290.009,1060.6 294.858,1027.54 291.095,1019.31C288.439,1013.5 272.306,1022.78 272.154,1016.45C272.002,1010.13 290.7,990.702 290.184,981.363C289.669,972.024 266.029,963.464 269.061,960.418C272.092,957.372 300.021,964.333 308.373,963.087C313.259,962.358 314.308,952.094 319.175,952.942C324.996,953.957 336.777,972.343 343.298,969.175C349.818,966.006 354.75,935.808 358.297,933.932C361.845,932.056 360.653,956.249 364.585,957.918C368.517,959.586 378.555,941.712 381.889,943.942C385.222,946.172 379.119,963.944 384.587,971.296C391.162,980.136 407.905,990.432 421.339,996.983C443.564,1007.82 486.65,1021.16 517.934,1036.33C552.407,1053.04 596.937,1076.42 628.179,1097.26C656.006,1115.82 681.684,1137.76 705.387,1161.36C729.546,1185.41 753.32,1213.5 773.131,1241.58C792.733,1269.37 810.115,1301.88 824.254,1329.86C837.253,1355.59 849.635,1390.62 857.966,1409.5C862.999,1420.91 864.448,1435.47 874.243,1443.19C893.35,1458.24 941.432,1484.75 972.607,1499.83C1001.09,1513.61 1038.28,1523.29 1061.3,1533.67C1078.61,1541.49 1104.03,1556.41 1110.68,1562.14C1113.5,1564.57 1104.64,1569.37 1101.18,1568.01C1091.95,1564.38 1070.86,1546.88 1055.29,1540.36C1040.25,1534.06 1008.93,1526.15 1007.75,1528.85C1006.57,1531.55 1037.03,1544.62 1048.22,1556.53C1060.85,1569.98 1079.04,1599.92 1083.53,1609.53C1084.88,1612.42 1077.26,1616.56 1075.15,1614.17C1068.75,1606.92 1058.76,1579.13 1045.13,1566.01C1030.95,1552.34 1005.39,1541.29 990.067,1532.17C977.935,1524.95 965.25,1518.67 953.216,1511.28C935.499,1500.41 893.639,1465.93 883.763,1466.92C873.888,1467.91 883.969,1503.34 893.961,1517.24C907.159,1535.59 947.004,1563.99 962.95,1577.04C971.327,1583.89 983.65,1586.52 989.636,1595.54C1001,1612.67 1018.53,1661.97 1031.15,1679.8C1039.06,1690.97 1060.34,1697.38 1065.35,1702.52C1067.47,1704.7 1064.1,1711.53 1061.18,1710.65C1056.03,1709.09 1038.93,1689.55 1034.46,1693.16C1029.99,1696.78 1036.59,1725.82 1034.35,1732.34C1032.9,1736.54 1022.09,1736.55 1021.01,1732.24C1019.15,1724.8 1026.71,1702.13 1023.17,1687.69C1018.38,1668.2 999.939,1619.59 992.291,1615.24C984.642,1610.9 979.424,1645.52 977.276,1661.62C974.454,1682.79 972.826,1722.73 975.354,1742.25C977.08,1755.58 990.709,1771.43 992.445,1778.76C993.215,1782.01 987.798,1788.88 985.775,1786.23C981.465,1780.57 972.1,1748.57 966.587,1744.84C961.073,1741.1 956.557,1761.91 952.693,1763.83C949.126,1765.6 942.597,1760.22 943.401,1756.33C944.334,1751.8 956.227,1744.64 958.29,1736.69C962.585,1720.13 965.759,1678.5 969.17,1657.01C971.794,1640.48 987.304,1622.11 978.76,1607.72C967.116,1588.1 915.615,1552.82 899.305,1539.31C893.57,1534.55 886.778,1522.04 880.904,1526.62C872.512,1533.17 854.119,1558.91 848.959,1578.57C841.424,1607.28 828.04,1664.01 835.693,1698.89C843.326,1733.67 886.642,1771.34 894.877,1787.83C896.96,1792 888.329,1801.21 885.107,1797.84C877.623,1790.01 857.859,1753.11 849.973,1740.86C846.267,1735.1 838.913,1723.54 837.79,1724.33C836.667,1725.11 843.485,1741.25 843.236,1745.55C843.075,1748.32 837.845,1752.45 836.292,1750.15C833.118,1745.45 825.681,1728.91 824.195,1717.35C822.191,1701.77 823.142,1676.84 824.267,1656.64C825.403,1636.21 835.298,1599.46 831.014,1594.8C826.729,1590.13 806.512,1618.07 798.562,1628.66C791.88,1637.57 787.187,1647.95 783.313,1658.39C777.572,1673.86 769.099,1711.64 764.114,1721.5C762.395,1724.89 752.824,1721.28 753.405,1717.52C754.859,1708.08 772.851,1671.74 772.841,1664.87C772.83,1658.01 758.057,1670.43 753.34,1676.3C746.359,1684.99 736.368,1711.18 730.952,1717.04C728.334,1719.87 719.806,1715.13 720.843,1711.42C722.981,1703.77 734.628,1681.62 743.782,1671.12C752.374,1661.27 766.945,1658.08 775.77,1648.43C785.33,1637.98 791.443,1620.89 801.144,1608.43C812.007,1594.48 830.38,1580.35 840.949,1564.71C851.288,1549.42 862.71,1532.98 864.56,1514.61C866.574,1494.62 860.929,1445.68 853.033,1444.74C845.138,1443.8 829.773,1489.84 817.19,1508.94C805.428,1526.8 790.194,1542.14 777.536,1559.37C764.777,1576.75 747.914,1605 740.632,1613.19C738.811,1615.25 732.678,1611.03 733.845,1608.55C736.988,1601.86 761.76,1575.54 759.493,1573.07C757.226,1570.6 727.79,1591.3 720.243,1593.74C717.534,1594.61 711.984,1589.46 714.215,1587.69C721.689,1581.76 750.518,1571.3 765.088,1558.19C781.166,1543.71 799.243,1522.43 810.682,1500.86C822.858,1477.9 836.678,1445.37 838.143,1420.43C839.544,1396.59 829.436,1372.96 819.472,1351.25C807.05,1324.18 785.288,1287.07 763.613,1258.05C739.701,1226.04 708.084,1188.18 676.001,1159.19C644.1,1130.36 608.546,1105.27 571.117,1084.1C527.868,1059.65 451.185,1018.94 416.506,1012.48Z" style="fill:rgb(242,78,78);"/>
        </g>
    </g>
</svg>
